<?xml version="1.0" standalone="no"?><!DOCTYPE svg PUBLIC "-//W3C//DTD SVG 1.1//EN" "http://www.w3.org/Graphics/SVG/1.1/DTD/svg11.dtd"><svg t="1572679919750" class="icon" viewBox="0 0 1025 1024" version="1.1" xmlns="http://www.w3.org/2000/svg" p-id="31444" xmlns:xlink="http://www.w3.org/1999/xlink" width="25" height="100"><defs><style type="text/css"></style></defs><path d="M320 769.536h512c35.072 0 64-28.928 64-64v-128c0-35.072 28.928-64 64-64s64 28.928 64 64v128c0 105.216-86.784 192-192 192h-512V984.064c0 15.36-12.8 28.16-28.16 28.16-6.656 0-13.056-2.304-18.176-6.656l-259.84-148.48 6.912 1.28c-8.96-4.864-14.592-14.336-14.592-24.576s5.632-19.712 14.592-24.576l256-150.528c4.352-2.816 9.472-4.096 14.592-4.096 15.36 0 28.16 12.8 28.16 28.16v86.784z m384-640v-87.04c0-15.36 12.8-28.16 28.16-28.16 4.864 0 9.728 1.28 14.08 3.84l259.84 149.76v-0.512c8.704 5.12 14.08 14.336 14.08 24.32 0 9.984-5.376 19.2-14.08 24.32l-259.84 149.76c-4.352 2.56-9.216 3.84-14.08 3.84-15.36 0-28.16-12.544-28.16-28.16v-83.712h-512c-35.072 0-64 28.928-64 64v119.808c0 35.072-28.928 64-64 64s-64-28.928-64-64v-119.808c0-105.216 86.784-192 192-192h512z m0 0" p-id="31445" fill="#515151"></path></svg>