<?xml version="1.0" standalone="no"?><!DOCTYPE svg PUBLIC "-//W3C//DTD SVG 1.1//EN" "http://www.w3.org/Graphics/SVG/1.1/DTD/svg11.dtd"><svg t="1572752010924" class="icon" viewBox="0 0 1053 1024" version="1.1" xmlns="http://www.w3.org/2000/svg" p-id="33197" xmlns:xlink="http://www.w3.org/1999/xlink" width="25" height="100"><defs><style type="text/css"></style></defs><path d="M328.533333 774.4H853.333333c36.266667 0 66.133333-29.866667 66.133334-66.133333V576c0-36.266667 29.866667-66.133333 66.133333-66.133333 36.266667 0 66.133333 29.866667 66.133333 66.133333v132.266667c0 108.8-89.6 196.266667-196.266666 196.266666H328.533333v87.466667c0 14.933333-12.8 29.866667-29.866666 29.866667-6.4 0-12.8-2.133333-19.2-6.4L14.933333 864l6.4 2.133333c-8.533333-4.266667-14.933333-14.933333-14.933333-25.6s6.4-19.2 14.933333-25.6L283.733333 661.333333c4.266667-2.133333 10.666667-4.266667 14.933334-4.266666 14.933333 0 29.866667 12.8 29.866666 29.866666v87.466667zM723.2 117.333333V29.866667c0-14.933333 12.8-29.866667 29.866667-29.866667 4.266667 0 10.666667 2.133333 14.933333 4.266667l266.666667 153.6c8.533333 4.266667 14.933333 14.933333 14.933333 25.6s-6.4 19.2-14.933333 25.6L768 362.666667c-4.266667 2.133333-8.533333 4.266667-14.933333 4.266666-14.933333 0-29.866667-12.8-29.866667-29.866666v-85.333334H196.266667c-36.266667 0-66.133333 29.866667-66.133334 66.133334v123.733333c0 36.266667-29.866667 66.133333-66.133333 66.133333s-64-34.133333-64-70.4v-123.733333c0-108.8 89.6-196.266667 196.266667-196.266667h526.933333z" p-id="33198" fill="#515151"></path><path d="M509.866667 644.266667V403.2h-27.733334c-21.333333 0-32-10.666667-34.133333-34.133333 2.133333-19.2 12.8-29.866667 34.133333-32h68.266667c19.2 2.133333 29.866667 12.8 32 34.133333v273.066667c-2.133333 23.466667-12.8 34.133333-36.266667 34.133333s-36.266667-10.666667-36.266666-34.133333z" p-id="33199" fill="#515151"></path></svg>