<?xml version="1.0" standalone="no"?><!DOCTYPE svg PUBLIC "-//W3C//DTD SVG 1.1//EN" "http://www.w3.org/Graphics/SVG/1.1/DTD/svg11.dtd"><svg t="1572620754614" class="icon" viewBox="0 0 1024 1024" version="1.1" xmlns="http://www.w3.org/2000/svg" p-id="1493" xmlns:xlink="http://www.w3.org/1999/xlink" width="200" height="200"><defs><style type="text/css"></style></defs><path d="M958.708971 342.196663 958.708971 834.519508c0 27.386744-22.224164 49.923016-49.634444 49.923016L177.627537 884.442524c-27.41028 0-49.634444-22.248723-49.634444-49.634444s22.224164-49.634444 49.634444-49.634444l681.812547 0L859.440084 388.099109 235.564064 388.099109l68.228941 69.366857c19.472494 19.273972 19.623943 52.514027 0.333598 71.970148-9.707083 9.788947-22.485107 14.684444-35.263132 14.684444-12.626575 0-25.254174-4.797259-34.930557-14.373359L79.995939 377.36872c-9.4093-9.31004-14.705933-22.057365-14.705933-35.289738s5.29561-26.03905 14.705933-35.349089l153.936975-152.583141c19.47454-19.261693 50.901297-19.594267 70.192665-0.13917 19.290345 19.455097 19.138896 49.910737-0.333598 69.185732l-68.228941 65.637929 673.511487 0C936.485831 288.830221 958.708971 314.810942 958.708971 342.196663z" p-id="1494"></path></svg>